# xmcd
#
# Track frame offsets: 
#        150
#        16342
#        30543
#        44359
#        59862
#        75013
#        88398
#        103924
#        121180
#        131883
#        148078
#        164171
#        176318
#        191673
#        206114
#        219128
#        231922
#        245091
#        258430
#        271655
#
# Disc length: 3752 seconds
#
# Revision: 0
# Processed by: cddbd v1.5.2PL0 Copyright (c) Steve Scherf et al.
# Submitted via: ExactAudioCopyFreeDBPlugin 1.0
#
DISCID=270ea614
DTITLE=Various Artist - El Saxo Maravilloso Vol.2
DYEAR=2008
DGENRE=Blues
TTITLE0=Fausto Papetti - Feelings
TTITLE1=Peter Hofmann - I'm In The Mood for Love
TTITLE2=Fausto Papetti - The Way We Were
TTITLE3=Peter Hofmann - Secret Love
TTITLE4=Fausto Papetti - What A Wonderful World
TTITLE5=Fausto Papetti - I Love Paris
TTITLE6=Fausto Papetti - Love Is In The Air
TTITLE7=Fausto Papetti - Smoke Gets In Your Eyes
TTITLE8=Fausto Papetti - Summertime
TTITLE9=Mel Colombo - Memory
TTITLE10=Fausto Papetti - Pequena Flor
TTITLE11=Peter Hofmann - Scarborough Fair
TTITLE12=Fausto Papetti - My Love Serenade
TTITLE13=Mel Colombo - Puente Sobre Aguas Turbulentas
TTITLE14=Fausto Papetti - Arriverderci Roma
TTITLE15=Peter Hofmann - This Masquerade
TTITLE16=Fausto Papetti - Love Story
TTITLE17=Nestor Cavatini - Maria Elena
TTITLE18=Peter Hofmann - Once In A While
TTITLE19=Fausto Papetti - Old Man River
EXTD=
EXTT0=
EXTT1=
EXTT2=
EXTT3=
EXTT4=
EXTT5=
EXTT6=
EXTT7=
EXTT8=
EXTT9=
EXTT10=
EXTT11=
EXTT12=
EXTT13=
EXTT14=
EXTT15=
EXTT16=
EXTT17=
EXTT18=
EXTT19=
PLAYORDER=
